<svg xmlns="http://www.w3.org/2000/svg" viewBox="0 0 148 32" width="444" height="96">
  <path transform="matrix(1,0,0,-1,45.92400000000001,17.495000000000005)" d="M0 0C.401 0 .523-.592 .633-1.092 .74-1.591 2.799-10.367 3.059-11.104 3.321-11.842 4.087-11.782 4.293-11.782H5.313C6.18-11.782 6.243-11.783 7.339-11.783 8.437-11.783 8.518-11.029 8.729-10.355 8.941-9.68 13.444 5.34 13.75 6.424 14.057 7.509 12.992 7.519 12.992 7.519H10.033C9.521 7.519 8.95 7.544 8.649 6.709 8.349 5.872 6.135-3.193 5.978-3.663 5.821-4.132 5.423-4.914 4.972-3.663 4.521-2.413 2.688 6.205 2.644 6.383 2.599 6.561 2.51 7.508 1.41 7.508H-1.422C-2.522 7.508-2.612 6.561-2.656 6.383-2.702 6.205-4.534-2.413-4.984-3.663-5.436-4.914-5.834-4.132-5.991-3.663-6.148-3.193-8.362 5.872-8.662 6.709-8.962 7.544-9.533 7.519-10.046 7.519H-13.004C-13.004 7.519-14.072 7.509-13.764 6.424-13.457 5.34-8.954-9.68-8.741-10.355-8.53-11.029-8.43-11.783-7.333-11.783-6.235-11.783-6.192-11.782-5.325-11.782H-4.304C-4.099-11.782-3.333-11.842-3.073-11.104-2.812-10.367-.754-1.591-.645-1.092-.536-.592-.415 0-.012 0Z" fill="#b53135"/>
  <path transform="matrix(1,0,0,-1,72.036,20.50098)" d="M0 0C-.821-.159-3.448-.506-4.247-.951-5.044-1.396-5.686-2.128-5.686-3.199-5.686-4.271-5.287-5.223-4.12-5.597-2.952-5.973-1.097-6.075 .203-4.892 1.505-3.709 1.45-1.65 1.452-1.311 1.455-.972 1.419-.504 1.354-.285 1.287-.067 1.062 .207 0 0M-8.448 4.566C-9.214 4.566-10.134 4.613-9.928 5.674-9.722 6.735-9.019 8.995-6.207 10.127-3.394 11.26-1.487 10.973-.894 10.973-.301 10.973 4.621 10.777 5.913 7.786 6.591 6.463 6.39 3.486 6.39 3.316 6.39 3.316 6.357-5.703 6.422-6.161 6.488-6.618 6.623-7.363 6.651-7.655 6.679-7.947 6.915-8.808 5.708-8.808H2.917C2.503-8.808 2.114-8.58 1.817-8.033 1.522-7.486 1.26-7.451 .25-8.089-.757-8.728-2.378-9.293-4.46-9.293-6.541-9.293-10.681-8.575-10.681-3.506-10.681 1.564-6.072 1.956-5.372 2.105-4.671 2.253-1.171 2.624-.328 2.954 .516 3.284 1.424 3.589 1.424 5.033 1.424 6.48 .415 7.454-1.079 7.454-2.574 7.454-2.572 7.446-3.05 7.337-3.478 7.239-4.387 6.993-4.979 5.512-5.52 4.439-6.133 4.574-6.389 4.574-6.644 4.574-8.448 4.566-8.448 4.566" fill="#b53135"/>
  <path transform="matrix(1,0,0,-1,83.39599999999999,10.03504000000001)" d="M0 0C.76 0 1.699 .021 2.286 .021 2.872 .021 3.549-.037 3.605-.633 3.662-1.227 3.672-1.74 3.775-2.006 3.877-2.271 4.103-2.638 4.803-1.829 5.478-1.051 7.139 .348 8.823 .507 10.507 .666 10.624-.028 10.624-.356 10.624-.685 10.686-2.652 10.686-3.157 10.686-3.662 10.618-4.367 9.914-4.367 9.208-4.367 6.293-4.07 5.109-6.096 3.924-8.12 3.941-9.682 3.941-10.636V-17.17C3.941-18.025 3.906-18.078 3.906-18.3 3.906-18.523 3.89-19.273 2.698-19.273H0C-.25-19.273-1.024-19.092-1.024-18.174V-1.145C-1.024-.649-.937 0 0 0" fill="#b53135"/>
  <path transform="matrix(1,0,0,-1,100.869,17.604000000000013)" d="M0 0C.66 0 4.159 .018 5.787 .018 7.415 .018 6.356 1.816 6.263 2.057 6.169 2.298 4.848 4.638 2.212 4.151-.423 3.663-.925 1.929-1.079 1.292-1.368 .09-.659 0 0 0M-6.293-2.132C-6.293-.415-6.066 3.505-2.471 6.291 1.124 9.077 5.319 8.124 7.113 7.07 8.905 6.015 11.33 3.873 11.828-1.078 11.993-3.476 11.415-3.31 10.295-3.31 9.175-3.31 2.602-3.311 1.149-3.311-.305-3.311-1.511-3.023-1.151-4.767-.791-6.514 .408-8.239 2.986-8.239 5.564-8.239 6.258-6.977 6.723-6.478 7.188-5.979 7.371-5.702 8.138-5.702 8.905-5.702 9.789-5.759 10.309-5.759 10.83-5.759 11.496-5.926 11.005-6.965 10.513-8.007 8.855-12.176 3.241-12.176-2.373-12.176-6.293-8.493-6.293-2.132" fill="#b53135"/>
  <path transform="matrix(1,0,0,-1,23.650000000000006,19.416020000000003)" d="M0 0C0 0-2.574 7.605-2.737 8.095-2.901 8.585-3.099 9.262-3.437 9.262-3.774 9.262-4.061 8.464-4.296 7.869-4.532 7.273-6.108 2.569-6.108 2.569-2.639 1.666 0 0 0 0M-21.13 2.899C-21.469 2.919-21.772 2.897-21.772 2.979-21.772 3.062-21.505 3.091-21.252 3.145-21 3.198-16.323 4.325-10.915 3.525-10.915 3.525-6.654 15.608-6.537 15.875-6.419 16.143-6.271 16.789-5.25 16.789H-1.664C-1.127 16.789-.685 16.87-.209 15.564 .266 14.259 7.91-7.52 8.266-8.47 8.622-9.423 8.368-9.861 7.713-9.861H4.213C3.693-9.861 3.189-9.903 2.8-8.887 2.413-7.871 2.552-5.225-7.036-.349-7.036-.349-9.799-8.608-9.961-8.962-10.124-9.315-10.158-9.862-11.416-9.862H-14.478C-15.114-9.862-15.707-9.711-15.162-8.217-14.618-6.723-11.756 1.275-11.756 1.275-11.756 1.275-16.176 2.588-21.13 2.899" fill="#b53135"/>
  <path transform="matrix(1,0,0,-1,125.36099999999999,11.546999999999997)" d="M0 0C.235 .595 .522 1.393 .859 1.393 1.197 1.393 1.395 .716 1.559 .226 1.696-.185 3.53-5.605 4.117-7.339 4.132-7.385 4.095-7.425 4.046-7.425H-2.389C-2.437-7.425-2.474-7.385-2.459-7.338-2.198-6.547-.22-.557 0 0M12.562-16.339C12.206-15.389 4.562 6.39 4.087 7.695 3.611 9.001 3.169 8.92 2.632 8.92H-.954C-1.975 8.92-2.123 8.274-2.241 8.006-2.358 7.739-6.619-4.344-6.619-4.344L-7.46-6.594C-7.46-6.594-10.322-14.592-10.866-16.086-11.411-17.58-10.818-17.731-10.182-17.731H-7.12C-5.862-17.731-5.828-17.184-5.665-16.831-5.577-16.639-4.721-14.115-3.958-11.849-3.948-11.82-3.921-11.8-3.891-11.8H5.482C5.514-11.8 5.541-11.821 5.551-11.85L7.096-16.756C7.485-17.772 7.989-17.73 8.509-17.73H12.009C12.664-17.73 12.918-17.292 12.562-16.339" fill="#6B849E"/>
  <path transform="matrix(1,0,0,-1,141.463,2.6180400000000077)" d="M0 0H3.251C3.733 0 4.124-.423 4.124-.944V-25.681C4.124-26.202 3.733-26.624 3.251-26.624H0C-.482-26.624-.873-26.202-.873-25.681V-.944C-.873-.423-.482 0 0 0" fill="#6B849E"/>
</svg>
